<svg width="563" height="139" viewBox="0 0 563 139" fill="none" xmlns="http://www.w3.org/2000/svg">
<path d="M9.91294 56.3033C12.8727 65.7936 22.9655 71.0876 32.4558 68.1278C41.9461 65.1679 64.4237 49.7159 61.4639 40.2257C58.5041 30.7354 31.2276 30.8006 21.7373 33.7604C12.247 36.7203 6.9531 46.813 9.91294 56.3033Z" fill="url(#paint0_radial_4_23)"/>
<path d="M4.17773 108.342C9.74804 113.913 18.7783 113.913 24.3486 108.342C29.9189 102.772 40.0039 83.6557 34.4345 78.0854C28.8642 72.5156 9.74804 82.601 4.17773 88.1708C-1.39258 93.7412 -1.39258 102.772 4.17773 108.342Z" fill="url(#paint1_radial_4_23)"/>
<path d="M57.4782 113.819C67.0808 116.392 76.9509 110.693 79.5241 101.091C82.0964 91.4882 81.0573 64.2319 71.4548 61.6586C61.8523 59.0859 47.3239 82.1708 44.7507 91.7734C42.1775 101.375 47.8757 111.246 57.4782 113.819Z" fill="url(#paint2_linear_4_23)"/>
<path d="M149.92 63.968C151.968 63.968 153.568 64.544 154.72 65.696C155.936 66.848 156.544 68.448 156.544 70.496C156.544 71.008 156.512 71.552 156.448 72.128C156.384 72.64 156.256 73.088 156.064 73.472C155.232 73.344 154.304 73.248 153.28 73.184C152.256 73.056 151.04 72.992 149.632 72.992C146.752 72.992 143.872 73.248 140.992 73.76C138.112 74.272 135.36 74.688 132.736 75.008C129.856 81.792 127.488 88.16 125.632 94.112C123.776 100.064 122.336 105.952 121.312 111.776C119.136 111.264 117.216 110.336 115.552 108.992C113.888 107.648 112.32 105.76 110.848 103.328C111.296 102.304 111.84 101.088 112.48 99.68C113.12 98.208 113.888 96.384 114.784 94.208C115.68 91.968 116.736 89.28 117.952 86.144C119.232 82.944 120.736 79.136 122.464 74.72C119.776 73.824 118.016 72.256 117.184 70.016C117.504 69.696 118.4 69.344 119.872 68.96C121.344 68.512 123.136 68.032 125.248 67.52C126.208 65.024 127.04 62.816 127.744 60.896C128.448 58.912 129.088 57.056 129.664 55.328C130.24 53.536 130.752 51.808 131.2 50.144C131.712 48.416 132.16 46.592 132.544 44.672H132.064C129.632 44.672 127.648 44.096 126.112 42.944C124.64 41.792 123.904 40.288 123.904 38.432C123.904 37.92 123.968 37.312 124.096 36.608C124.288 35.904 124.512 35.296 124.768 34.784C125.984 34.976 127.168 35.104 128.32 35.168C129.536 35.232 131.104 35.264 133.024 35.264C137.056 35.264 140.832 35.168 144.352 34.976C147.872 34.72 151.04 34.464 153.856 34.208C156.736 33.952 159.2 33.728 161.248 33.536C163.296 33.28 164.864 33.152 165.952 33.152C167.424 33.152 168.736 33.92 169.888 35.456C171.04 36.992 171.936 39.168 172.576 41.984C170.528 41.792 168.864 41.664 167.584 41.6C166.368 41.536 165.28 41.504 164.32 41.504C161.056 41.504 158.048 41.664 155.296 41.984C152.608 42.24 150.048 42.56 147.616 42.944C147.232 43.52 146.784 44.256 146.272 45.152C145.824 46.048 145.216 47.328 144.448 48.992C143.68 50.592 142.688 52.704 141.472 55.328C140.32 57.952 138.848 61.28 137.056 65.312C139.552 64.928 141.92 64.608 144.16 64.352C146.464 64.096 148.384 63.968 149.92 63.968ZM161.439 97.568C161.439 96.992 161.471 96.288 161.535 95.456C161.663 94.56 161.855 93.408 162.111 92C162.367 90.528 162.687 88.768 163.071 86.72C163.519 84.672 164.063 82.208 164.703 79.328C164.831 78.688 165.119 77.664 165.567 76.256C166.015 74.848 166.591 73.376 167.295 71.84C168.063 70.24 168.959 68.704 169.983 67.232C171.071 65.76 172.351 64.672 173.823 63.968C174.911 64.224 176.351 64.896 178.143 65.984C179.935 67.008 181.471 68.448 182.751 70.304C181.279 71.968 180.031 73.632 179.007 75.296C178.047 76.96 177.151 78.688 176.319 80.48C175.551 82.272 174.815 84.128 174.111 86.048C173.471 87.968 172.735 89.984 171.903 92.096C171.199 93.888 170.559 95.744 169.983 97.664C169.407 99.52 169.087 101.152 169.023 102.56C169.023 103.712 168.991 104.512 168.927 104.96C168.927 105.472 168.767 105.728 168.447 105.728C168.191 105.728 167.679 105.568 166.911 105.248C166.143 104.928 165.343 104.448 164.511 103.808C163.743 103.104 163.039 102.24 162.399 101.216C161.759 100.192 161.439 98.976 161.439 97.568ZM179.775 55.904C179.775 55.52 179.871 54.944 180.063 54.176C179.743 53.856 179.455 53.376 179.199 52.736C179.007 52.096 178.911 51.52 178.911 51.008C178.911 50.432 178.975 49.664 179.103 48.704C179.295 47.68 179.519 46.592 179.775 45.44C180.031 44.288 180.351 43.104 180.735 41.888C181.119 40.608 181.503 39.456 181.887 38.432C182.655 38.432 183.583 38.656 184.671 39.104C185.823 39.488 186.975 40.032 188.127 40.736C189.279 41.376 190.335 42.112 191.295 42.944C192.255 43.712 192.991 44.448 193.503 45.152C192.799 45.856 191.871 46.848 190.719 48.128C189.567 49.344 188.447 50.656 187.359 52.064C186.271 53.408 185.279 54.688 184.383 55.904C183.487 57.12 182.911 57.984 182.655 58.496C181.887 58.368 181.215 58.048 180.639 57.536C180.063 56.96 179.775 56.416 179.775 55.904ZM183.935 97.856C183.935 95.04 184.607 91.104 185.951 86.048C187.295 80.928 189.183 74.976 191.615 68.192C195.583 57.376 199.295 48.384 202.751 41.216C206.271 33.984 209.695 28.352 213.023 24.32C213.791 24.448 214.719 24.768 215.807 25.28C216.959 25.792 218.079 26.368 219.167 27.008C220.255 27.584 221.215 28.192 222.047 28.832C222.943 29.472 223.519 29.984 223.775 30.368C218.783 36.256 214.399 42.592 210.623 49.376C206.847 56.16 203.391 63.936 200.255 72.704C197.567 80.256 195.519 87.072 194.111 93.152C192.703 99.168 191.999 104.192 191.999 108.224C191.999 109.312 191.999 109.984 191.999 110.24C191.999 110.496 192.031 110.752 192.095 111.008C191.199 110.88 190.431 110.656 189.791 110.336C189.151 110.016 188.735 109.632 188.543 109.184C188.415 108.864 188.063 108.384 187.487 107.744C186.911 107.168 186.399 106.72 185.951 106.4C185.375 106.016 184.895 105.024 184.511 103.424C184.127 101.76 183.935 99.904 183.935 97.856ZM262.206 74.528C261.182 74.592 259.934 75.264 258.462 76.544C256.99 77.76 255.39 79.36 253.662 81.344C251.998 83.264 250.238 85.408 248.382 87.776C246.59 90.144 244.83 92.512 243.102 94.88C241.438 97.184 239.87 99.36 238.398 101.408C236.926 103.456 235.678 105.088 234.654 106.304C233.246 105.728 232.03 104.896 231.006 103.808C229.982 102.656 229.246 101.248 228.798 99.584C229.118 97.6 229.566 95.552 230.142 93.44C230.718 91.264 231.454 89.024 232.35 86.72C233.31 84.416 234.462 82.016 235.806 79.52C237.214 76.96 238.91 74.272 240.894 71.456C239.934 71.52 238.622 72.224 236.958 73.568C235.294 74.848 233.502 76.544 231.582 78.656C229.662 80.704 227.678 83.04 225.63 85.664C223.582 88.224 221.662 90.752 219.87 93.248C217.502 96.576 215.518 99.488 213.918 101.984C212.382 104.48 211.262 105.952 210.558 106.4C208.894 105.184 207.742 103.872 207.102 102.464C206.462 101.056 205.982 99.488 205.662 97.76C205.726 96.224 205.95 94.304 206.334 92C206.782 89.696 207.39 87.328 208.158 84.896C209.63 80.224 211.518 75.584 213.822 70.976C216.19 66.368 218.462 62.144 220.638 58.304C222.43 58.688 224.03 59.296 225.438 60.128C226.91 60.96 228.446 62.176 230.046 63.776C229.406 65.76 228.414 67.872 227.07 70.112C225.726 72.288 224.318 74.592 222.846 77.024C221.374 79.456 220.03 81.952 218.814 84.512C217.598 87.072 216.798 89.664 216.414 92.288C218.206 89.728 220.318 86.784 222.75 83.456C225.246 80.128 227.774 76.992 230.334 74.048C232.958 71.104 235.55 68.608 238.11 66.56C240.67 64.512 242.974 63.488 245.022 63.488C245.79 63.488 246.622 63.616 247.518 63.872C248.414 64.128 249.246 64.448 250.014 64.832C250.782 65.216 251.422 65.6 251.934 65.984C252.446 66.304 252.734 66.56 252.798 66.752C252.478 68.032 251.71 69.792 250.494 72.032C249.342 74.208 248.094 76.512 246.75 78.944C245.406 81.376 244.158 83.744 243.006 86.048C241.854 88.288 241.182 90.08 240.99 91.424C244.126 87.136 247.07 83.264 249.822 79.808C252.574 76.288 255.166 73.28 257.598 70.784C260.03 68.288 262.27 66.368 264.318 65.024C266.43 63.68 268.414 63.008 270.27 63.008C271.55 63.008 272.734 63.36 273.822 64.064C274.974 64.704 275.774 65.664 276.222 66.944C275.646 68.864 274.686 71.168 273.342 73.856C272.062 76.544 270.75 79.392 269.406 82.4C268.062 85.344 266.846 88.256 265.758 91.136C264.734 94.016 264.222 96.608 264.222 98.912C264.222 100.256 264.414 101.152 264.798 101.6C265.182 101.984 265.726 102.176 266.43 102.176C267.198 102.176 267.902 102.048 268.542 101.792C269.246 101.472 269.758 101.312 270.078 101.312C270.462 101.568 270.686 101.888 270.75 102.272C270.814 102.656 270.846 103.008 270.846 103.328C269.566 104.352 268.254 105.184 266.91 105.824C265.566 106.528 264.062 106.88 262.398 106.88C260.862 106.88 259.582 106.624 258.558 106.112C257.598 105.6 256.798 104.896 256.158 104C255.518 103.104 255.07 102.08 254.814 100.928C254.558 99.776 254.43 98.528 254.43 97.184C254.43 95.008 254.718 92.864 255.294 90.752C255.87 88.576 256.542 86.528 257.31 84.608C258.142 82.624 259.006 80.8 259.902 79.136C260.798 77.408 261.566 75.872 262.206 74.528ZM287.798 45.824C285.238 45.824 283.254 45.12 281.846 43.712C280.502 42.24 279.83 40.48 279.83 38.432C279.83 37.92 279.894 37.312 280.022 36.608C280.214 35.904 280.438 35.296 280.694 34.784C281.526 35.168 282.742 35.456 284.342 35.648C286.006 35.776 287.926 35.84 290.102 35.84C293.366 35.84 297.046 35.712 301.142 35.456C305.302 35.136 309.27 34.816 313.046 34.496C316.822 34.176 320.15 33.888 323.03 33.632C325.91 33.312 327.766 33.152 328.598 33.152C330.966 33.152 332.662 34.048 333.686 35.84C334.774 37.568 335.574 39.904 336.086 42.848C334.422 42.72 332.758 42.624 331.094 42.56C329.494 42.432 328.118 42.368 326.966 42.368C324.918 42.368 322.838 42.432 320.726 42.56C318.678 42.688 316.598 42.88 314.486 43.136C313.59 44.992 312.598 47.2 311.51 49.76C310.422 52.256 309.334 54.88 308.246 57.632C307.222 60.384 306.23 63.136 305.27 65.888C304.31 68.576 303.478 71.008 302.774 73.184C301.366 77.408 300.118 81.312 299.03 84.896C298.006 88.48 297.078 91.84 296.246 94.976C295.478 98.048 294.806 100.992 294.23 103.808C293.654 106.624 293.142 109.376 292.694 112.064C288.406 111.424 284.822 108.736 281.942 104C282.454 102.016 283.062 99.872 283.766 97.568C284.534 95.2 285.398 92.544 286.358 89.6C287.382 86.592 288.566 83.2 289.91 79.424C291.254 75.648 292.79 71.36 294.518 66.56C295.158 64.768 295.83 62.912 296.534 60.992C297.238 59.008 297.91 57.056 298.55 55.136C299.254 53.216 299.862 51.36 300.374 49.568C300.95 47.776 301.43 46.144 301.814 44.672C299.126 44.992 296.566 45.28 294.134 45.536C291.766 45.728 289.654 45.824 287.798 45.824ZM313.164 102.08C313.484 100.224 314.028 97.792 314.796 94.784C315.628 91.712 316.588 88.48 317.676 85.088C318.764 81.632 319.916 78.176 321.132 74.72C322.348 71.264 323.532 68.16 324.684 65.408C325.516 63.424 326.252 61.888 326.892 60.8C327.532 59.648 328.236 58.688 329.004 57.92C329.9 58.048 330.828 58.272 331.788 58.592C332.748 58.912 333.676 59.296 334.572 59.744C335.468 60.192 336.268 60.672 336.972 61.184C337.676 61.632 338.22 62.08 338.604 62.528C336.876 64.576 335.34 66.912 333.996 69.536C332.716 72.16 331.404 75.52 330.06 79.616C333.516 76.544 336.556 73.6 339.18 70.784C341.868 67.968 344.364 64.832 346.668 61.376C347.052 61.056 347.724 60.896 348.684 60.896C349.58 60.896 350.444 61.056 351.276 61.376C352.108 61.632 352.684 62.016 353.004 62.528C351.852 65.6 351.276 68.64 351.276 71.648C351.276 74.464 351.692 76.576 352.524 77.984C352.46 78.368 352.012 79.104 351.18 80.192C350.412 81.28 349.548 82.304 348.588 83.264C346.86 82.368 345.324 81.152 343.98 79.616C342.636 78.016 341.644 76.288 341.004 74.432C337.996 76.544 335.436 78.624 333.324 80.672C331.212 82.656 329.388 84.896 327.852 87.392C326.38 89.824 325.1 92.64 324.012 95.84C322.988 99.04 321.996 102.848 321.036 107.264C320.46 107.2 319.756 106.976 318.924 106.592C318.156 106.272 317.356 105.856 316.524 105.344C315.756 104.832 315.052 104.288 314.412 103.712C313.772 103.136 313.356 102.592 313.164 102.08ZM387.307 65.216C387.947 65.216 388.683 65.344 389.515 65.6C390.411 65.792 391.211 66.08 391.915 66.464C392.619 66.784 393.195 67.136 393.643 67.52C394.155 67.904 394.411 68.256 394.411 68.576C393.131 71.264 391.947 73.984 390.859 76.736C389.771 79.424 388.843 82.016 388.075 84.512C387.307 87.008 386.699 89.344 386.251 91.52C385.867 93.696 385.675 95.584 385.675 97.184C385.675 98.976 385.867 100.48 386.251 101.696C386.635 102.848 387.275 103.68 388.171 104.192C387.403 104.704 386.411 105.12 385.195 105.44C383.979 105.76 382.891 105.92 381.931 105.92C378.475 105.92 376.747 103.552 376.747 98.816C376.747 95.168 377.963 90.176 380.395 83.84C379.115 86.784 377.643 89.568 375.979 92.192C374.315 94.752 372.619 97.024 370.891 99.008C369.163 100.992 367.403 102.624 365.611 103.904C363.883 105.12 362.283 105.856 360.811 106.112C358.443 105.984 356.523 104.864 355.051 102.752C353.579 100.576 352.843 97.824 352.843 94.496C352.843 90.912 353.611 87.136 355.147 83.168C356.683 79.2 358.635 75.52 361.003 72.128C363.435 68.736 366.059 65.92 368.875 63.68C371.691 61.376 374.411 60.16 377.035 60.032C377.675 60.224 378.379 60.608 379.147 61.184C379.979 61.76 380.747 62.432 381.451 63.2C382.219 63.968 382.859 64.768 383.371 65.6C383.883 66.368 384.171 67.04 384.235 67.616C381.675 68 379.019 69.248 376.267 71.36C373.579 73.472 371.115 76.032 368.875 79.04C366.699 81.984 364.907 85.152 363.499 88.544C362.091 91.936 361.387 95.104 361.387 98.048C361.387 99.264 361.835 100.032 362.731 100.352C364.587 99.968 366.731 98.4 369.163 95.648C371.595 92.832 374.539 88.512 377.995 82.688C378.635 81.536 379.339 80.256 380.107 78.848C380.939 77.44 381.771 75.968 382.603 74.432C383.435 72.896 384.235 71.36 385.003 69.824C385.835 68.224 386.603 66.688 387.307 65.216ZM399.107 87.104C399.107 83.456 399.843 79.936 401.315 76.544C402.851 73.088 404.835 70.048 407.267 67.424C409.763 64.736 412.579 62.592 415.715 60.992C418.915 59.328 422.211 58.496 425.603 58.496C428.931 58.496 431.491 59.328 433.283 60.992C435.075 62.656 435.971 65.024 435.971 68.096C435.971 69.568 435.747 71.008 435.299 72.416C434.915 73.76 434.371 74.976 433.667 76.064C433.027 77.152 432.259 78.048 431.363 78.752C430.467 79.392 429.571 79.712 428.675 79.712C427.907 79.712 427.107 79.488 426.275 79.04C425.507 78.528 424.867 77.888 424.355 77.12C428.643 73.216 430.787 69.664 430.787 66.464C430.787 64.608 430.051 63.68 428.579 63.68C427.299 63.68 425.699 64.288 423.779 65.504C421.859 66.72 420.003 68.32 418.211 70.304C415.459 73.376 413.347 76.8 411.875 80.576C410.467 84.288 409.763 88.192 409.763 92.288C409.763 97.472 410.915 100.576 413.219 101.6C414.179 101.472 415.299 101.184 416.579 100.736C417.859 100.288 419.235 99.712 420.707 99.008C422.179 98.24 423.683 97.376 425.219 96.416C426.819 95.456 428.355 94.432 429.827 93.344C430.083 93.536 430.307 93.824 430.499 94.208C430.691 94.592 430.787 94.944 430.787 95.264C429.699 96.608 428.451 97.92 427.043 99.2C425.635 100.48 424.163 101.664 422.627 102.752C421.091 103.776 419.587 104.64 418.115 105.344C416.707 106.112 415.459 106.592 414.371 106.784C412.259 106.592 410.275 105.92 408.419 104.768C406.563 103.68 404.931 102.24 403.523 100.448C402.179 98.656 401.091 96.608 400.259 94.304C399.491 92 399.107 89.6 399.107 87.104ZM439.035 94.976C439.035 92.672 439.611 89.472 440.763 85.376C441.979 81.28 443.547 76.8 445.467 71.936C447.387 67.072 449.563 62.048 451.995 56.864C454.427 51.68 456.859 46.848 459.291 42.368C461.787 37.888 464.155 34.016 466.395 30.752C468.699 27.488 470.651 25.28 472.251 24.128C473.147 24.192 474.107 24.576 475.131 25.28C476.219 25.984 477.211 26.848 478.107 27.872C479.003 28.832 479.739 29.856 480.315 30.944C480.955 32.032 481.275 33.024 481.275 33.92C478.395 36.224 475.451 39.2 472.443 42.848C469.499 46.432 466.683 50.4 463.995 54.752C461.307 59.04 458.811 63.616 456.507 68.48C454.267 73.28 452.379 78.016 450.843 82.688C452.891 79.168 455.035 75.968 457.275 73.088C459.515 70.208 461.755 67.744 463.995 65.696C466.235 63.648 468.411 62.08 470.523 60.992C472.699 59.84 474.747 59.232 476.667 59.168C479.483 61.216 480.891 63.936 480.891 67.328C480.891 69.376 480.475 71.456 479.643 73.568C478.811 75.616 477.691 77.536 476.283 79.328C474.939 81.056 473.371 82.56 471.579 83.84C469.851 85.056 468.027 85.856 466.107 86.24C466.747 88.48 467.547 90.752 468.507 93.056C469.531 95.36 470.715 97.6 472.059 99.776C473.467 101.952 475.035 103.968 476.763 105.824C478.555 107.68 480.571 109.248 482.811 110.528C482.491 111.168 482.011 111.808 481.371 112.448C480.731 113.088 479.963 113.632 479.067 114.08C478.171 114.592 477.179 114.976 476.091 115.232C475.067 115.552 474.043 115.712 473.019 115.712C471.291 115.712 469.659 114.848 468.123 113.12C466.651 111.392 465.307 108.896 464.091 105.632C463.131 103.008 462.203 99.872 461.307 96.224C460.411 92.576 459.611 88.768 458.907 84.8C459.803 84.224 460.923 83.392 462.267 82.304C463.611 81.152 465.019 79.84 466.491 78.368C472.123 72.928 474.939 68.224 474.939 64.256C474.939 63.744 474.587 63.488 473.883 63.488C472.603 63.552 471.099 64.16 469.371 65.312C467.643 66.464 465.787 68.064 463.803 70.112C461.883 72.16 459.899 74.56 457.851 77.312C455.867 80.064 453.947 83.04 452.091 86.24C451.323 87.52 450.619 88.992 449.979 90.656C449.339 92.32 448.763 94.048 448.251 95.84C447.803 97.568 447.451 99.296 447.195 101.024C446.939 102.752 446.811 104.352 446.811 105.824C446.811 106.72 446.907 107.456 447.099 108.032C445.115 107.84 443.899 107.328 443.451 106.496C442.939 105.728 442.491 105.088 442.107 104.576C441.787 104.128 441.435 103.744 441.051 103.424C440.475 102.976 439.995 102.016 439.611 100.544C439.227 99.072 439.035 97.216 439.035 94.976ZM520.368 64.256C520.112 68.224 519.408 71.648 518.256 74.528C517.104 77.344 515.44 79.84 513.264 82.016C511.152 84.128 508.56 86.048 505.488 87.776C502.416 89.504 498.832 91.168 494.736 92.768C494.736 93.152 494.704 93.568 494.64 94.016C494.64 94.4 494.64 94.816 494.64 95.264C494.64 96.096 494.704 96.96 494.832 97.856C494.96 98.752 495.184 99.584 495.504 100.352C495.824 101.12 496.272 101.76 496.848 102.272C497.424 102.72 498.16 102.944 499.056 102.944C500.784 102.944 502.48 102.56 504.144 101.792C505.808 101.024 507.376 100.096 508.848 99.008C510.384 97.856 511.792 96.64 513.072 95.36C514.416 94.016 515.6 92.8 516.624 91.712C517.264 92.288 517.808 92.832 518.256 93.344C515.376 97.184 512.208 100.384 508.752 102.944C505.36 105.44 502.128 107.04 499.056 107.744C494.64 107.232 491.184 105.632 488.688 102.944C486.256 100.192 485.04 96.896 485.04 93.056C485.04 90.432 485.392 87.776 486.096 85.088C486.864 82.336 487.888 79.712 489.168 77.216C490.512 74.656 492.048 72.256 493.776 70.016C495.568 67.776 497.456 65.824 499.44 64.16C501.488 62.496 503.568 61.184 505.68 60.224C507.856 59.264 510 58.784 512.112 58.784C515.056 59.168 517.808 60.992 520.368 64.256ZM513.744 67.424C512.016 67.68 510.224 68.384 508.368 69.536C506.512 70.688 504.752 72.224 503.088 74.144C501.488 76.064 500.016 78.304 498.672 80.864C497.328 83.424 496.272 86.176 495.504 89.12C500.624 86.56 504.88 83.424 508.272 79.712C511.664 75.936 513.488 71.84 513.744 67.424ZM522.508 102.08C522.828 100.224 523.372 97.792 524.14 94.784C524.972 91.712 525.932 88.48 527.02 85.088C528.108 81.632 529.26 78.176 530.476 74.72C531.692 71.264 532.876 68.16 534.028 65.408C534.86 63.424 535.596 61.888 536.236 60.8C536.876 59.648 537.58 58.688 538.348 57.92C539.244 58.048 540.172 58.272 541.132 58.592C542.092 58.912 543.02 59.296 543.916 59.744C544.812 60.192 545.612 60.672 546.316 61.184C547.02 61.632 547.564 62.08 547.948 62.528C546.22 64.576 544.684 66.912 543.34 69.536C542.06 72.16 540.748 75.52 539.404 79.616C542.86 76.544 545.9 73.6 548.524 70.784C551.212 67.968 553.708 64.832 556.012 61.376C556.396 61.056 557.068 60.896 558.028 60.896C558.924 60.896 559.788 61.056 560.62 61.376C561.452 61.632 562.028 62.016 562.348 62.528C561.196 65.6 560.62 68.64 560.62 71.648C560.62 74.464 561.036 76.576 561.868 77.984C561.804 78.368 561.356 79.104 560.524 80.192C559.756 81.28 558.892 82.304 557.932 83.264C556.204 82.368 554.668 81.152 553.324 79.616C551.98 78.016 550.988 76.288 550.348 74.432C547.34 76.544 544.78 78.624 542.668 80.672C540.556 82.656 538.732 84.896 537.196 87.392C535.724 89.824 534.444 92.64 533.356 95.84C532.332 99.04 531.34 102.848 530.38 107.264C529.804 107.2 529.1 106.976 528.268 106.592C527.5 106.272 526.7 105.856 525.868 105.344C525.1 104.832 524.396 104.288 523.756 103.712C523.116 103.136 522.7 102.592 522.508 102.08Z" fill="white"/>
<defs>
<radialGradient id="paint0_radial_4_23" cx="0" cy="0" r="1" gradientUnits="userSpaceOnUse" gradientTransform="translate(61.7109 39.7778) rotate(162.759) scale(75.9111 108.145)">
<stop stop-color="#3E96F7"/>
<stop offset="0.48585" stop-color="#9301FF"/>
<stop offset="0.71428" stop-color="#CC01FE"/>
</radialGradient>
<radialGradient id="paint1_radial_4_23" cx="0" cy="0" r="1" gradientUnits="userSpaceOnUse" gradientTransform="translate(39.0918 76) rotate(146.921) scale(65.0423 150.771)">
<stop offset="0.0977501" stop-color="#D730A2"/>
<stop offset="0.467786" stop-color="#FD291C"/>
<stop offset="0.700031" stop-color="#FCA13D"/>
</radialGradient>
<linearGradient id="paint2_linear_4_23" x1="67.0918" y1="63.5" x2="67.0918" y2="115" gradientUnits="userSpaceOnUse">
<stop stop-color="#9F58EE"/>
<stop offset="1" stop-color="#56F77C"/>
</linearGradient>
</defs>
</svg>
